<?xml version="1.0" standalone="no"?>
<!DOCTYPE svg PUBLIC "-//W3C//DTD SVG 20010904//EN"
 "http://www.w3.org/TR/2001/REC-SVG-20010904/DTD/svg10.dtd">
<svg version="1.0" xmlns="http://www.w3.org/2000/svg"
 width="64.000000pt" height="64.000000pt" viewBox="0 0 64.000000 64.000000"
 preserveAspectRatio="xMidYMid meet">

<g transform="translate(0.000000,64.000000) scale(0.100000,-0.100000)"
fill="#000000" stroke="none">
<path d="M400 573 c-43 -16 -90 -82 -90 -128 0 -24 -2 -26 -37 -19 -60 10
-145 52 -186 92 -32 31 -39 34 -48 22 -17 -26 -4 -108 22 -136 l24 -26 -27 7
c-22 6 -28 4 -28 -8 0 -32 24 -68 59 -90 33 -20 34 -22 14 -25 -13 -2 -23 -8
-23 -14 0 -17 61 -68 81 -68 10 0 19 -4 19 -10 0 -17 -60 -41 -116 -47 -48 -5
-52 -7 -36 -19 10 -7 44 -20 77 -29 210 -62 441 94 462 311 4 48 11 65 37 93
l31 33 -35 -6 c-30 -6 -33 -5 -19 6 9 7 21 23 27 35 12 22 12 22 -25 7 -34
-15 -39 -14 -74 5 -35 20 -77 26 -109 14z"/>
</g>
</svg>
