<?xml version="1.0" standalone="no"?>
<!DOCTYPE svg PUBLIC "-//W3C//DTD SVG 20010904//EN"
 "http://www.w3.org/TR/2001/REC-SVG-20010904/DTD/svg10.dtd">
<svg version="1.0" xmlns="http://www.w3.org/2000/svg"
 width="64.000000pt" height="64.000000pt" viewBox="0 0 64.000000 64.000000"
 preserveAspectRatio="xMidYMid meet">

<g transform="translate(0.000000,64.000000) scale(0.100000,-0.100000)"
fill="#000000" stroke="none">
<path d="M83 553 c-34 -7 -71 -58 -78 -108 -4 -24 -6 -98 -4 -164 6 -197 17
-204 346 -199 219 3 222 3 247 27 36 34 46 78 46 211 0 133 -10 177 -46 211
-25 24 -27 24 -257 25 -128 1 -242 0 -254 -3z m488 -52 c23 -19 24 -23 24
-181 0 -218 23 -202 -281 -198 -208 3 -235 5 -251 21 -16 16 -18 38 -18 178 0
215 -22 199 275 199 209 0 230 -2 251 -19z"/>
<path d="M247 423 c-4 -3 -7 -48 -7 -99 0 -68 4 -93 14 -97 22 -9 171 78 171
99 0 12 -25 32 -75 61 -76 43 -91 48 -103 36z m131 -97 c-1 -1 -24 -15 -50
-30 l-48 -27 0 56 0 55 51 -26 c28 -14 49 -26 47 -28z"/>
</g>
</svg>
