<?xml version="1.0" standalone="no"?>
<!DOCTYPE svg PUBLIC "-//W3C//DTD SVG 20010904//EN"
 "http://www.w3.org/TR/2001/REC-SVG-20010904/DTD/svg10.dtd">
<svg version="1.0" xmlns="http://www.w3.org/2000/svg"
 width="32.000000pt" height="32.000000pt" viewBox="0 0 32.000000 32.000000"
 preserveAspectRatio="xMidYMid meet">
<metadata>
Created by potrace 1.16, written by Peter Selinger 2001-2019
</metadata>
<g transform="translate(0.000000,32.000000) scale(0.100000,-0.100000)"
fill="#000000" stroke="none">
<path d="M120 305 c-7 -8 -22 -15 -34 -15 -26 0 -46 -18 -46 -40 0 -10 -7 -31
-16 -48 -8 -18 -13 -41 -9 -51 7 -23 67 -61 96 -61 22 0 26 -37 9 -71 -10 -18
-7 -19 38 -19 l50 0 -13 37 c-15 43 -12 53 15 53 28 0 88 39 95 61 4 10 -1 33
-9 51 -9 17 -16 38 -16 48 0 22 -20 40 -46 40 -12 0 -27 7 -34 15 -7 8 -25 15
-40 15 -15 0 -33 -7 -40 -15z"/>
</g>
</svg>
